<mxfile host="app.diagrams.net" modified="2023-08-10T21:38:04.298Z" agent="Mozilla/5.0 (Macintosh; Intel Mac OS X 10_15_7) AppleWebKit/537.36 (KHTML, like Gecko) Chrome/114.0.0.0 Safari/537.36" version="21.6.8" etag="GlYZZIqZOqYDALCv-52H" type="github">
  <diagram name="Page-1" id="_QHWPwKxP-K-oVD1plGy">
    <mxGraphModel>
      <root>
        <mxCell id="0" />
        <mxCell id="1" parent="0" />
      </root>
    </mxGraphModel>
  </diagram>
</mxfile>
